# xmcd
#
# Track frame offsets: 
#        150
#        23147
#        47217
#
# Disc length: 933 seconds
#
# Revision: 2
# Processed by: cddbd v1.5.2PL0 Copyright (c) Steve Scherf et al.
# Submitted via: ExactAudioCopy v1.3
#
DISCID=1e03a303
DTITLE=稲垣潤一 - 僕ならばここにいる FHDF-1247
DYEAR=1993
DGENRE=JPop
TTITLE0=僕ならばここにいる
TTITLE1=ロング・バージョン (ライブバージョン)
TTITLE2=僕ならばここにいる (オリジナル・カラオケ)
EXTD=YEAR: 1993
EXTT0=
EXTT1=
EXTT2=
PLAYORDER=
